<?xml version="1.0" encoding="UTF-8"?>
<svg width="16px" height="16px" viewBox="0 0 16 16" version="1.1" xmlns="http://www.w3.org/2000/svg" xmlns:xlink="http://www.w3.org/1999/xlink">
    <title>close</title>
    <g id="Symbols" stroke="none" stroke-width="1" fill="none" fill-rule="evenodd">
        <g id="Header-MB-close" transform="translate(-281.000000, -38.000000)" fill="#777777">
            <g id="close" transform="translate(281.000000, 38.000000)">
                <path d="M9.21108571,7.99977143 L15.7472,1.46371429 C16.0820571,1.12885714 16.0820571,0.586 15.7472,0.251142857 C15.4123429,-0.0837142857 14.8706286,-0.0837142857 14.5357714,0.251142857 L7.99862857,6.7872 L1.46257143,0.251142857 C1.12771429,-0.0837142857 0.586,-0.0837142857 0.251142857,0.251142857 C-0.0837142857,0.586 -0.0837142857,1.12885714 0.251142857,1.46371429 L6.78708571,7.99977143 L0.251142857,14.5357714 C-0.0837142857,14.8706286 -0.0837142857,15.4134857 0.251142857,15.7483429 C0.418,15.9152 0.637428571,15.9997714 0.856857143,15.9997714 C1.07628571,15.9997714 1.29571429,15.9152 1.46257143,15.7483429 L7.99862857,9.21234286 L14.5357714,15.7483429 C14.7025143,15.9152 14.9219429,15.9997714 15.1413714,15.9997714 C15.3609143,15.9997714 15.5803429,15.9152 15.7472,15.7483429 C16.0820571,15.4134857 16.0820571,14.8706286 15.7472,14.5357714 L9.21108571,7.99977143 Z" id="Path"></path>
            </g>
        </g>
    </g>
</svg>